<svg width="18" height="18" viewBox="0 0 18 18" fill="none" xmlns="http://www.w3.org/2000/svg">
<path d="M16.5 12.75C16.5 13.1478 16.342 13.5294 16.0607 13.8107C15.7794 14.092 15.3978 14.25 15 14.25H5.121C4.72321 14.2501 4.34174 14.4082 4.0605 14.6895L2.409 16.341C2.33453 16.4155 2.23965 16.4662 2.13637 16.4867C2.03308 16.5072 1.92602 16.4967 1.82873 16.4564C1.73144 16.4161 1.64828 16.3479 1.58976 16.2603C1.53125 16.1727 1.50001 16.0698 1.5 15.9645V3.75C1.5 3.35218 1.65804 2.97064 1.93934 2.68934C2.22064 2.40804 2.60218 2.25 3 2.25H15C15.3978 2.25 15.7794 2.40804 16.0607 2.68934C16.342 2.97064 16.5 3.35218 16.5 3.75V12.75Z" stroke="#4A5565" stroke-width="1.5" stroke-linecap="round" stroke-linejoin="round"/>
</svg>
