<svg width="89" height="21" viewBox="0 0 89 21" fill="none" xmlns="http://www.w3.org/2000/svg">
  <!-- Fan section (red) -->
  <g id="fan">
    <path d="M26.9543 11.375V19.7955H24.1937V6.1883L26.8435 5.24109V7.92188H27.0189C27.3452 7.17094 27.8561 6.56772 28.5516 6.11222C29.2533 5.65673 30.1366 5.42899 31.2015 5.42899C32.1679 5.42899 33.0142 5.63211 33.7405 6.03836C34.4669 6.43846 35.0301 7.03552 35.4302 7.82955C35.8303 8.62359 36.0303 9.60536 36.0303 10.7749V19.7955H33.2697V11.1073C33.2697 10.0793 33.0019 9.27605 32.4664 8.69745C31.9309 8.1127 31.1953 7.82032 30.2597 7.82032C29.6196 7.82032 29.0502 7.95881 28.5516 8.2358C28.0592 8.51279 27.6683 8.91904 27.379 9.45455C27.0959 9.98391 26.9543 10.6241 26.9543 11.375Z" fill="#FF1744"/>
    <path d="M14.0381 20.1094C13.1394 20.1094 12.3269 19.9432 11.6006 19.6108C10.8742 19.2723 10.2987 18.7829 9.874 18.1428C9.45544 17.5026 9.24615 16.7178 9.24615 15.7884C9.24615 14.9882 9.40004 14.3296 9.7078 13.8125C10.0156 13.2955 10.4311 12.8861 10.9543 12.5845C11.4775 12.2829 12.0622 12.0552 12.7085 11.9013C13.3548 11.7474 14.0134 11.6305 14.6844 11.5504C15.5338 11.4519 16.2232 11.3719 16.7525 11.3104C17.2819 11.2427 17.6666 11.135 17.9067 10.9872C18.1467 10.8395 18.2668 10.5994 18.2668 10.2671V10.2024C18.2668 9.39608 18.039 8.77131 17.5835 8.32813C17.1342 7.88495 16.4632 7.66336 15.5707 7.66336C14.6413 7.66336 13.9088 7.86956 13.3733 8.28197C12.8439 8.68822 12.4777 9.14063 12.2746 9.63921L9.6801 9.0483C9.98787 8.18656 10.4372 7.49101 11.0281 6.96166C11.6252 6.42614 12.3115 6.03836 13.0871 5.7983C13.8626 5.55209 14.6782 5.42899 15.5338 5.42899C16.1001 5.42899 16.7002 5.49669 17.3342 5.63211C17.9744 5.76137 18.5714 6.00143 19.1254 6.35228C19.6855 6.70313 20.1441 7.20479 20.5011 7.85725C20.8581 8.50356 21.0366 9.34376 21.0366 10.3778V19.7955H18.3406V17.8565H18.2298C18.0513 18.2135 17.7836 18.5644 17.4266 18.9091C17.0695 19.2538 16.611 19.54 16.0508 19.7678C15.4907 19.9955 14.8198 20.1094 14.0381 20.1094ZM14.6382 17.8935C15.4015 17.8935 16.0539 17.7427 16.5956 17.4411C17.1434 17.1395 17.5589 16.7455 17.842 16.2592C18.1313 15.7668 18.276 15.2405 18.276 14.6804V12.8523C18.1775 12.9508 17.9867 13.0431 17.7035 13.1293C17.4266 13.2093 17.1096 13.2801 16.7525 13.3416C16.3955 13.397 16.0478 13.4493 15.7092 13.4986C15.3707 13.5417 15.0875 13.5786 14.8598 13.6094C14.3243 13.6771 13.8349 13.791 13.3918 13.951C12.9547 14.111 12.6039 14.3419 12.3392 14.6435C12.0807 14.9389 11.9514 15.3329 11.9514 15.8253C11.9514 16.5085 12.2038 17.0256 12.7085 17.3764C13.2132 17.7211 13.8565 17.8935 14.6382 17.8935Z" fill="#FF1744"/>
    <path d="M8.0142 5.61364V7.82955H0V5.61364H8.0142ZM2.19744 19.7955V3.97017C2.19744 3.08381 2.39134 2.34825 2.77912 1.7635C3.1669 1.17259 3.68087 0.732482 4.32102 0.443183C4.96117 0.147728 5.65672 0 6.40767 0C6.96165 0 7.43561 0.0461651 7.82955 0.138495C8.22348 0.224669 8.51586 0.304688 8.70668 0.378552L8.06037 2.61293C7.93111 2.576 7.76491 2.53291 7.56179 2.48367C7.35866 2.42827 7.11245 2.40057 6.82315 2.40057C6.15223 2.40057 5.67211 2.56676 5.38281 2.89915C5.09967 3.23154 4.9581 3.71165 4.9581 4.33949V19.7955H2.19744Z" fill="#FF1744"/>
  </g>
  
  <!-- Tribe section (black) -->
  <g id="tribe" transform="translate(37, 0)">
    <path d="M46.522 19.9263C45.071 19.9263 43.8214 19.6162 42.7731 18.9962C41.7312 18.3698 40.9258 17.4909 40.3569 16.3595C39.7944 15.2217 39.5131 13.889 39.5131 12.3613C39.5131 10.8528 39.7944 9.52321 40.3569 8.37264C40.9258 7.22207 41.7184 6.32399 42.7347 5.67839C43.7575 5.0328 44.9528 4.71 46.3207 4.71C47.1516 4.71 47.957 4.84743 48.7369 5.12229C49.5167 5.39714 50.2166 5.82861 50.8366 6.41667C51.4567 7.00474 51.9457 7.76859 52.3036 8.70822C52.6616 9.64146 52.8406 10.7761 52.8406 12.112V13.1283H41.1335V10.9806H50.0312C50.0312 10.2263 49.8778 9.55837 49.571 8.97669C49.2642 8.38862 48.8327 7.9252 48.2766 7.58642C47.7269 7.24764 47.0813 7.07825 46.3398 7.07825C45.5344 7.07825 44.8313 7.27641 44.2305 7.67271C43.636 8.06263 43.1758 8.57399 42.8498 9.2068C42.5302 9.83322 42.3704 10.514 42.3704 11.2491V12.927C42.3704 13.9113 42.543 14.7487 42.8881 15.439C43.2397 16.1294 43.7287 16.6567 44.3551 17.0211C44.9815 17.379 45.7134 17.558 46.5508 17.558C47.0941 17.558 47.5895 17.4813 48.0369 17.3279C48.4844 17.1681 48.8711 16.9316 49.1971 16.6184C49.5231 16.3052 49.7724 15.9185 49.945 15.4582H52.7894C52.6706 16.3595 52.0511 17.4461 51.4886 18.047C50.9325 18.6415 50.2326 19.1049 49.3888 19.4373C48.5515 19.7633 47.5959 19.9263 46.522 19.9263Z" fill="#1A1A1A"/>
    <path d="M25 19.6364V1L27.8668 0V7.29652H28.0394C28.2056 6.9897 28.4453 6.63494 28.7585 6.23224C29.0717 5.82955 29.5064 5.47798 30.0625 5.17756C30.6186 4.87074 31.3537 4.71733 32.2678 4.71733C33.4567 4.71733 34.5178 5.01776 35.451 5.61861C36.3842 6.21946 37.1161 7.08558 37.6467 8.21697C38.1836 9.34837 38.4521 10.7099 38.4521 12.3015C38.4521 13.8931 38.1868 15.2578 37.6562 16.3956C37.1257 17.527 36.397 18.3995 35.4702 19.0131C34.5433 19.6204 33.4854 19.924 32.2965 19.924C31.4016 19.924 30.6697 19.7738 30.1009 19.4734C29.5384 19.1729 29.0973 18.8214 28.7777 18.4187C28.4581 18.016 28.212 17.658 28.0394 17.3448H27.7997V19.6364H25ZM27.8093 12.2727C27.8093 13.3082 27.9595 14.2159 28.2599 14.9957C28.5604 15.7756 28.995 16.386 29.5639 16.8271C30.1328 17.2617 30.8295 17.479 31.6541 17.479C32.5107 17.479 33.2266 17.2521 33.8018 16.7983C34.3771 16.3381 34.8118 15.7148 35.1058 14.9286C35.4062 14.1424 35.5565 13.2571 35.5565 12.2727C35.5565 11.3011 35.4094 10.4286 35.1154 9.65518C34.8278 8.88175 34.3931 8.27131 33.8114 7.82386C33.2362 7.37642 32.517 7.1527 31.6541 7.1527C30.8232 7.1527 30.12 7.36683 29.5447 7.7951C28.9759 8.22337 28.5444 8.82102 28.2504 9.58807C27.9563 10.3551 27.8093 11.25 27.8093 12.2727Z" fill="#1A1A1A"/>
    <path d="M20.1942 19.6373V4.91H23.0611V19.6373H20.1942Z" fill="#1A1A1A"/>
    <path d="M21.6406 3.5293C21.1426 3.5293 20.7148 3.36311 20.3573 3.03072C20.0061 2.69194 19.8306 2.28924 19.8306 1.82262C19.8306 1.34961 20.0061 0.946915 20.3573 0.614528C20.7148 0.27575 21.1426 0.106361 21.6406 0.106361C22.1385 0.106361 22.5631 0.27575 22.9143 0.614528C23.2718 0.946915 23.4506 1.34961 23.4506 1.82262C23.4506 2.28924 23.2718 2.69194 22.9143 3.03072C22.5631 3.36311 22.1385 3.5293 21.6406 3.5293Z" fill="#FF1744"/>
    <path d="M10.3129 19.6378V5.91052L13.0838 4.91052V7.25001H13.2372C13.5057 6.45739 13.9787 5.83417 14.6562 5.38034C15.3402 4.92011 16.1136 4.68999 16.9766 4.68999C17.1555 4.68999 17.3665 4.69639 17.6094 4.70917C17.8587 4.72195 18.0536 4.73793 18.1942 4.75711V7.4993C18.0792 7.46734 17.8746 7.43218 17.5806 7.39383C17.2866 7.34909 16.9925 7.32671 16.6985 7.32671C16.0209 7.32671 15.4169 7.47053 14.8864 7.75818C14.3622 8.03943 13.9467 8.43254 13.6399 8.93751C13.3331 9.43609 13.1797 10.005 13.1797 10.6442V19.6378H10.3129Z" fill="#1A1A1A"/>
    <path d="M8.04439 5.00908V7.31022H0V5.00908H8.04439ZM2.15732 2.48067L5.02415 1.48067V15.4121C5.02415 15.9682 5.10724 16.3869 5.27344 16.6682C5.43963 16.943 5.65376 17.1316 5.91584 17.2339C6.1843 17.3298 6.47514 17.3777 6.78835 17.3777C7.01847 17.3777 7.21982 17.3617 7.3924 17.3298C7.56499 17.2978 7.69922 17.2722 7.7951 17.253L8.31285 19.6213C8.14666 19.6852 7.91016 19.7491 7.60334 19.8131C7.29652 19.8834 6.913 19.9217 6.45277 19.9281C5.69851 19.9409 4.99538 19.8067 4.34339 19.5254C3.69141 19.2442 3.16406 18.8095 2.76136 18.2214C2.35866 17.6334 2.15732 16.8951 2.15732 16.0066V2.48067Z" fill="#1A1A1A"/>
  </g>
</svg>
