<svg width="89" height="21" viewBox="0 0 136.68 20" fill="none" xmlns="http://www.w3.org/2000/svg">
  <!-- Creator section (red) -->
  <g id="creator" transform="translate(0, 0.78)">
    <path d="M73.9574 18.1578V4.43053L76.7283 3.43053V5.77002H76.8818C77.1502 4.97741 77.6232 4.35418 78.3008 3.90035C78.9847 3.44012 79.7582 3.21001 80.6211 3.21001C80.8001 3.21001 81.011 3.2164 81.2539 3.22918C81.5032 3.24197 81.6982 3.25795 81.8388 3.27712V6.01931C81.7237 5.98735 81.5192 5.9522 81.2252 5.91384C80.9311 5.8691 80.6371 5.84673 80.3431 5.84673C79.6655 5.84673 79.0614 5.99055 78.5309 6.27819C78.0068 6.55944 77.5913 6.95255 77.2845 7.45752C76.9776 7.9561 76.8242 8.52499 76.8242 9.1642V18.1578H73.9574Z" fill="#FF1744"/>
    <path d="M65.0924 18.4263C63.7117 18.4263 62.5068 18.1098 61.4776 17.477C60.4485 16.8442 59.6495 15.9589 59.0806 14.8211C58.5117 13.6834 58.2273 12.3538 58.2273 10.8325C58.2273 9.30481 58.5117 7.96887 59.0806 6.82469C59.6495 5.68052 60.4485 4.79202 61.4776 4.15921C62.5068 3.5264 63.7117 3.20999 65.0924 3.20999C66.473 3.20999 67.6779 3.5264 68.7071 4.15921C69.7362 4.79202 70.5352 5.68052 71.1041 6.82469C71.673 7.96887 71.9574 9.30481 71.9574 10.8325C71.9574 12.3538 71.673 13.6834 71.1041 14.8211C70.5352 15.9589 69.7362 16.8442 68.7071 17.477C67.6779 18.1098 66.473 18.4263 65.0924 18.4263ZM65.1019 16.0197C65.9968 16.0197 66.7383 15.7831 67.3264 15.3101C67.9144 14.8371 68.3491 14.2075 68.6304 13.4213C68.918 12.6351 69.0618 11.7689 69.0618 10.8229C69.0618 9.88329 68.918 9.02036 68.6304 8.23414C68.3491 7.44153 67.9144 6.80552 67.3264 6.32611C66.7383 5.84671 65.9968 5.60701 65.1019 5.60701C64.2007 5.60701 63.4528 5.84671 62.8583 6.32611C62.2703 6.80552 61.8324 7.44153 61.5448 8.23414C61.2635 9.02036 61.1229 9.88329 61.1229 10.8229C61.1229 11.7689 61.2635 12.6351 61.5448 13.4213C61.8324 14.2075 62.2703 14.8371 62.8583 15.3101C63.4528 15.7831 64.2007 16.0197 65.1019 16.0197Z" fill="#FF1744"/>
    <path d="M57.9588 3.52841V5.82955H49.9144V3.52841H57.9588ZM52.0717 1L54.9386 0V13.9315C54.9386 14.4876 55.0217 14.9062 55.1879 15.1875C55.3541 15.4624 55.5682 15.6509 55.8303 15.7532C56.0987 15.8491 56.3896 15.897 56.7028 15.897C56.9329 15.897 57.1342 15.881 57.3068 15.8491C57.4794 15.8171 57.6136 15.7915 57.7095 15.7724L58.2273 18.1406C58.0611 18.2045 57.8246 18.2685 57.5178 18.3324C57.2109 18.4027 56.8274 18.4411 56.3672 18.4474C55.6129 18.4602 54.9098 18.326 54.2578 18.0447C53.6058 17.7635 53.0785 17.3288 52.6758 16.7408C52.2731 16.1527 52.0717 15.4144 52.0717 14.5259V1Z" fill="#FF1744"/>
    <path d="M41.9159 18.449C41.0172 18.449 40.2047 18.2828 39.4784 17.9504C38.752 17.6118 38.1765 17.1225 37.7518 16.4823C37.3332 15.8422 37.124 15.0574 37.124 14.1279C37.124 13.3277 37.2778 12.6691 37.5856 12.1521C37.8934 11.635 38.3089 11.2257 38.8321 10.9241C39.3553 10.6225 39.94 10.3947 40.5863 10.2409C41.2326 10.087 41.8912 9.97002 42.5622 9.89C43.4116 9.79152 44.101 9.7115 44.6304 9.64995C45.1597 9.58224 45.5444 9.47452 45.7845 9.32679C46.0245 9.17907 46.1446 8.93901 46.1446 8.60662V8.54199C46.1446 7.73565 45.9168 7.11088 45.4613 6.6677C45.012 6.22452 44.3411 6.00293 43.4485 6.00293C42.5191 6.00293 41.7866 6.20913 41.2511 6.62154C40.7217 7.02779 40.3555 7.4802 40.1524 7.97878L37.5579 7.38787C37.8657 6.52613 38.315 5.83058 38.9059 5.30122C39.503 4.76571 40.1893 4.37793 40.9649 4.13787C41.7404 3.89166 42.556 3.76855 43.4116 3.76855C43.9779 3.76855 44.578 3.83626 45.212 3.97168C45.8522 4.10094 46.4492 4.341 47.0032 4.69185C47.5634 5.0427 48.0219 5.54436 48.3789 6.19682C48.7359 6.84313 48.9144 7.68333 48.9144 8.71742V18.135H46.2184V16.1961H46.1076C45.9291 16.5531 45.6614 16.904 45.3044 17.2487C44.9474 17.5934 44.4888 17.8796 43.9286 18.1073C43.3685 18.3351 42.6976 18.449 41.9159 18.449ZM42.516 16.233C43.2793 16.233 43.9317 16.0822 44.4734 15.7806C45.0212 15.479 45.4367 15.0851 45.7198 14.5988C46.0091 14.1064 46.1538 13.5801 46.1538 13.02V11.1918C46.0553 11.2903 45.8645 11.3827 45.5813 11.4688C45.3044 11.5489 44.9874 11.6196 44.6304 11.6812C44.2733 11.7366 43.9256 11.7889 43.587 11.8382C43.2485 11.8812 42.9653 11.9182 42.7376 11.949C42.2021 12.0167 41.7127 12.1305 41.2696 12.2906C40.8325 12.4506 40.4817 12.6814 40.217 12.983C39.9585 13.2785 39.8292 13.6724 39.8292 14.1649C39.8292 14.8481 40.0816 15.3651 40.5863 15.716C41.0911 16.0607 41.7343 16.233 42.516 16.233Z" fill="#FF1744"/>
    <path d="M29.8054 18.4263C28.3545 18.4263 27.1048 18.1162 26.0565 17.4962C25.0146 16.8698 24.2092 15.9909 23.6403 14.8595C23.0778 13.7217 22.7966 12.389 22.7966 10.8613C22.7966 9.35275 23.0778 8.0232 23.6403 6.87263C24.2092 5.72206 25.0018 4.82398 26.0182 4.17839C27.0409 3.53279 28.2362 3.20999 29.6041 3.20999C30.4351 3.20999 31.2405 3.34742 32.0203 3.62228C32.8001 3.89714 33.5001 4.3286 34.1201 4.91667C34.7401 5.50474 35.2291 6.26858 35.5871 7.20822C35.945 8.14145 36.124 9.27604 36.124 10.612V11.6283H24.417V9.48059H33.3147C33.3147 8.72633 33.1613 8.05836 32.8545 7.47668C32.5476 6.88861 32.1162 6.42519 31.5601 6.08641C31.0103 5.74763 30.3648 5.57824 29.6233 5.57824C28.8179 5.57824 28.1148 5.7764 27.5139 6.1727C26.9194 6.56262 26.4592 7.07398 26.1332 7.70679C25.8136 8.33321 25.6538 9.01397 25.6538 9.74905V11.427C25.6538 12.4113 25.8264 13.2487 26.1716 13.939C26.5231 14.6294 27.0121 15.1567 27.6385 15.5211C28.265 15.879 28.9969 16.058 29.8342 16.058C30.3775 16.058 30.8729 15.9813 31.3204 15.8279C31.7678 15.6681 32.1545 15.4316 32.4805 15.1184C32.8065 14.8052 33.0558 14.4184 33.2284 13.9582H36.0728C35.954 14.8595 35.3346 15.9461 34.7721 16.547C34.216 17.1415 33.516 17.6049 32.6723 17.9373C31.8349 18.2633 30.8793 18.4263 29.8054 18.4263Z" fill="#FF1744"/>
    <path d="M14.9152 18.1578V4.43053L17.6861 3.43053V5.77002H17.8395C18.108 4.97741 18.581 4.35418 19.2586 3.90035C19.9425 3.44012 20.7159 3.21001 21.5789 3.21001C21.7578 3.21001 21.9688 3.2164 22.2117 3.22918C22.461 3.24197 22.6559 3.25795 22.7966 3.27712V6.01931C22.6815 5.98735 22.477 5.9522 22.1829 5.91384C21.8889 5.8691 21.5948 5.84673 21.3008 5.84673C20.6233 5.84673 20.0192 5.99055 19.4887 6.27819C18.9645 6.55944 18.549 6.95255 18.2422 7.45752C17.9354 7.9561 17.782 8.52499 17.782 9.1642V18.1578H14.9152Z" fill="#FF1744"/>
    <path d="M6.86506 18.4263C5.43963 18.4263 4.21235 18.1035 3.18324 17.4579C2.16051 16.8059 1.37429 15.9078 0.824574 14.7636C0.274858 13.6194 0 12.3091 0 10.8325C0 9.33677 0.28125 8.01681 0.84375 6.87263C1.40625 5.72207 2.19886 4.82398 3.22159 4.17839C4.24432 3.53279 5.44922 3.20999 6.8363 3.20999C7.9549 3.20999 8.95206 3.41773 9.82777 3.83322C10.7035 4.24231 11.4098 4.81759 11.9467 5.55907C12.4901 6.30055 12.8129 7.16667 12.9151 8.15743H10.125C9.97159 7.46709 9.62003 6.87263 9.07031 6.37405C8.52699 5.87547 7.79829 5.62618 6.88423 5.62618C6.08523 5.62618 5.3853 5.83712 4.78445 6.259C4.18999 6.67448 3.72656 7.26894 3.39417 8.04238C3.06179 8.80942 2.8956 9.71709 2.8956 10.7654C2.8956 11.8393 3.0586 12.7661 3.38459 13.5459C3.71058 14.3258 4.17081 14.9298 4.76527 15.3581C5.36612 15.7863 6.07244 16.0005 6.88423 16.0005C7.42756 16.0005 7.91974 15.9014 8.36079 15.7032C8.80824 15.4987 9.18217 15.2079 9.4826 14.8307C9.78942 14.4536 10.0036 13.9998 10.125 13.4692H12.9151C12.8129 14.4216 12.5028 15.2718 11.9851 16.0197C11.4673 16.7675 10.7738 17.3556 9.90447 17.7839C9.04155 18.2121 8.02841 18.4263 6.86506 18.4263Z" fill="#FF1744"/>
  </g>
  
  <!-- Tribe section (black) -->
  <g id="tribe" transform="translate(83.84, 0)">
    <path d="M46.522 19.9263C45.071 19.9263 43.8214 19.6162 42.7731 18.9962C41.7312 18.3698 40.9258 17.4909 40.3569 16.3595C39.7944 15.2217 39.5131 13.889 39.5131 12.3613C39.5131 10.8528 39.7944 9.52321 40.3569 8.37264C40.9258 7.22207 41.7184 6.32399 42.7347 5.67839C43.7575 5.0328 44.9528 4.71 46.3207 4.71C47.1516 4.71 47.957 4.84743 48.7369 5.12229C49.5167 5.39714 50.2166 5.82861 50.8366 6.41667C51.4567 7.00474 51.9457 7.76859 52.3036 8.70822C52.6616 9.64146 52.8406 10.7761 52.8406 12.112V13.1283H41.1335V10.9806H50.0312C50.0312 10.2263 49.8778 9.55837 49.571 8.97669C49.2642 8.38862 48.8327 7.9252 48.2766 7.58642C47.7269 7.24764 47.0813 7.07825 46.3398 7.07825C45.5344 7.07825 44.8313 7.27641 44.2305 7.67271C43.636 8.06263 43.1758 8.57399 42.8498 9.2068C42.5302 9.83322 42.3704 10.514 42.3704 11.2491V12.927C42.3704 13.9113 42.543 14.7487 42.8881 15.439C43.2397 16.1294 43.7287 16.6567 44.3551 17.0211C44.9815 17.379 45.7134 17.558 46.5508 17.558C47.0941 17.558 47.5895 17.4813 48.0369 17.3279C48.4844 17.1681 48.8711 16.9316 49.1971 16.6184C49.5231 16.3052 49.7724 15.9185 49.945 15.4582H52.7894C52.6706 16.3595 52.0511 17.4461 51.4886 18.047C50.9325 18.6415 50.2326 19.1049 49.3888 19.4373C48.5515 19.7633 47.5959 19.9263 46.522 19.9263Z" fill="#1A1A1A"/>
    <path d="M25 19.6364V1L27.8668 0V7.29652H28.0394C28.2056 6.9897 28.4453 6.63494 28.7585 6.23224C29.0717 5.82955 29.5064 5.47798 30.0625 5.17756C30.6186 4.87074 31.3537 4.71733 32.2678 4.71733C33.4567 4.71733 34.5178 5.01776 35.451 5.61861C36.3842 6.21946 37.1161 7.08558 37.6467 8.21697C38.1836 9.34837 38.4521 10.7099 38.4521 12.3015C38.4521 13.8931 38.1868 15.2578 37.6562 16.3956C37.1257 17.527 36.397 18.3995 35.4702 19.0131C34.5433 19.6204 33.4854 19.924 32.2965 19.924C31.4016 19.924 30.6697 19.7738 30.1009 19.4734C29.5384 19.1729 29.0973 18.8214 28.7777 18.4187C28.4581 18.016 28.212 17.658 28.0394 17.3448H27.7997V19.6364H25ZM27.8093 12.2727C27.8093 13.3082 27.9595 14.2159 28.2599 14.9957C28.5604 15.7756 28.995 16.386 29.5639 16.8271C30.1328 17.2617 30.8295 17.479 31.6541 17.479C32.5107 17.479 33.2266 17.2521 33.8018 16.7983C34.3771 16.3381 34.8118 15.7148 35.1058 14.9286C35.4062 14.1424 35.5565 13.2571 35.5565 12.2727C35.5565 11.3011 35.4094 10.4286 35.1154 9.65518C34.8278 8.88175 34.3931 8.27131 33.8114 7.82386C33.2362 7.37642 32.517 7.1527 31.6541 7.1527C30.8232 7.1527 30.12 7.36683 29.5447 7.7951C28.9759 8.22337 28.5444 8.82102 28.2504 9.58807C27.9563 10.3551 27.8093 11.25 27.8093 12.2727Z" fill="#1A1A1A"/>
    <path d="M20.1942 19.6373V4.91H23.0611V19.6373H20.1942Z" fill="#1A1A1A"/>
    <path d="M21.6406 3.5293C21.1426 3.5293 20.7148 3.36311 20.3573 3.03072C20.0061 2.69194 19.8306 2.28924 19.8306 1.82262C19.8306 1.34961 20.0061 0.946915 20.3573 0.614528C20.7148 0.27575 21.1426 0.106361 21.6406 0.106361C22.1385 0.106361 22.5631 0.27575 22.9143 0.614528C23.2718 0.946915 23.4506 1.34961 23.4506 1.82262C23.4506 2.28924 23.2718 2.69194 22.9143 3.03072C22.5631 3.36311 22.1385 3.5293 21.6406 3.5293Z" fill="#FF1744"/>
    <path d="M10.3129 19.6378V5.91052L13.0838 4.91052V7.25001H13.2372C13.5057 6.45739 13.9787 5.83417 14.6562 5.38034C15.3402 4.92011 16.1136 4.68999 16.9766 4.68999C17.1555 4.68999 17.3665 4.69639 17.6094 4.70917C17.8587 4.72195 18.0536 4.73793 18.1942 4.75711V7.4993C18.0792 7.46734 17.8746 7.43218 17.5806 7.39383C17.2866 7.34909 16.9925 7.32671 16.6985 7.32671C16.0209 7.32671 15.4169 7.47053 14.8864 7.75818C14.3622 8.03943 13.9467 8.43254 13.6399 8.93751C13.3331 9.43609 13.1797 10.005 13.1797 10.6442V19.6378H10.3129Z" fill="#1A1A1A"/>
    <path d="M8.04439 5.00908V7.31022H0V5.00908H8.04439ZM2.15732 2.48067L5.02415 1.48067V15.4121C5.02415 15.9682 5.10724 16.3869 5.27344 16.6682C5.43963 16.943 5.65376 17.1316 5.91584 17.2339C6.1843 17.3298 6.47514 17.3777 6.78835 17.3777C7.01847 17.3777 7.21982 17.3617 7.3924 17.3298C7.56499 17.2978 7.69922 17.2722 7.7951 17.253L8.31285 19.6213C8.14666 19.6852 7.91016 19.7491 7.60334 19.8131C7.29652 19.8834 6.913 19.9217 6.45277 19.9281C5.69851 19.9409 4.99538 19.8067 4.34339 19.5254C3.69141 19.2442 3.16406 18.8095 2.76136 18.2214C2.35866 17.6334 2.15732 16.8951 2.15732 16.0066V2.48067Z" fill="#1A1A1A"/>
  </g>
</svg>
